<?xml version="1.0" encoding="UTF-8"?>
<svg version="1.1" xmlns="http://www.w3.org/2000/svg" width="512" height="512">
<path d="M0 0 C0.96808594 -0.00773437 1.93617188 -0.01546875 2.93359375 -0.0234375 C14.69979398 0.00814961 24.90364507 1.76523754 33.578125 10.29296875 C40.81708973 18.88543739 41.95197856 28.1845912 41.84057617 39.12548828 C41.84093778 40.28641935 41.84129938 41.44735043 41.84167194 42.64346123 C41.83944818 46.36925906 41.81667295 50.09459612 41.79296875 53.8203125 C41.78855314 56.13337996 41.78549554 58.44645042 41.78381348 60.75952148 C41.76813996 69.29806029 41.72625612 77.83653476 41.6875 86.375 C41.625625 105.47375 41.56375 124.5725 41.5 144.25 C88.36 144.25 135.22 144.25 183.5 144.25 C183.38134879 106.19549254 183.38134879 106.19549254 183.22973633 68.14111328 C183.21618652 60.75952148 183.21618652 60.75952148 183.21366882 57.29733276 C183.20908012 54.89358858 183.19856643 52.48985104 183.18327332 50.08615112 C183.16120151 46.43247591 183.15828577 42.77922052 183.15942383 39.12548828 C183.1486295 38.06537096 183.13783518 37.00525364 183.12671375 35.91301155 C183.16736823 26.11293143 185.0251345 17.88573846 191.421875 10.29296875 C200.92993433 0.94576005 212.25108245 -0.10185553 225 0 C225.96808594 -0.00773437 226.93617188 -0.01546875 227.93359375 -0.0234375 C238.22823308 0.00419912 248.69156438 1.04793952 256.6328125 8.16015625 C266.40497612 18.38306542 267.18686251 28.75377415 267.5 42.25 C268.39976562 42.08886719 269.29953125 41.92773438 270.2265625 41.76171875 C275.75356731 40.97671178 281.3032367 41.06578524 286.875 41.0625 C287.96039063 41.05025391 289.04578125 41.03800781 290.1640625 41.02539062 C301.08505724 41.00560621 309.67929385 42.45445598 318.5 49.25 C327.2721416 58.33543237 328.65796567 68.88805881 328.63371277 80.95857239 C328.63597833 81.79885835 328.63824388 82.63914431 328.64057809 83.50489348 C328.64687337 86.30120952 328.64609162 89.09747652 328.64526367 91.89379883 C328.64825794 93.90666262 328.65166109 95.91952584 328.65544128 97.93238831 C328.66425792 103.38702773 328.66661841 108.84165145 328.66725707 114.29629731 C328.66796887 117.70759573 328.67010564 121.11889018 328.67275429 124.53018761 C328.68199978 136.44078194 328.68609015 148.35136509 328.68530273 160.26196289 C328.68470207 171.34888196 328.69525381 182.43575236 328.7110464 193.52265912 C328.72413875 203.05497523 328.72948592 212.58727545 328.72884732 222.11960047 C328.72859285 227.80679486 328.73141629 233.49394597 328.74202538 239.18113136 C328.75173494 244.53193643 328.75176595 249.88265708 328.74450874 255.23346519 C328.74346647 257.19133503 328.74580443 259.1492102 328.7518692 261.10707092 C328.8319624 288.7660738 328.8319624 288.7660738 320.5 299.25 C312.89092714 306.56582259 304.15345912 309.37066447 293.69140625 309.3828125 C292.61439453 309.38410156 291.53738281 309.38539063 290.42773438 309.38671875 C289.31720703 309.38285156 288.20667969 309.37898438 287.0625 309.375 C285.95583984 309.37886719 284.84917969 309.38273437 283.70898438 309.38671875 C278.20039732 309.38013347 272.92427364 309.23339349 267.5 308.25 C267.47421875 309.36117188 267.4484375 310.47234375 267.421875 311.6171875 C267.00786982 324.0066759 265.51896321 333.04381524 256.6328125 342.33984375 C247.89520256 350.16528562 236.20466089 350.58951793 225 350.5 C224.03191406 350.50773437 223.06382812 350.51546875 222.06640625 350.5234375 C210.30020602 350.49185039 200.09635493 348.73476246 191.421875 340.20703125 C184.18291027 331.61456261 183.04802144 322.3154088 183.15942383 311.37451172 C183.15906222 310.21358065 183.15870062 309.05264957 183.15832806 307.85653877 C183.16055182 304.13074094 183.18332705 300.40540388 183.20703125 296.6796875 C183.21144686 294.36662004 183.21450446 292.05354958 183.21618652 289.74047852 C183.23186004 281.20193971 183.27374388 272.66346524 183.3125 264.125 C183.374375 245.02625 183.43625 225.9275 183.5 206.25 C136.64 206.25 89.78 206.25 41.5 206.25 C41.61865121 244.30450746 41.61865121 244.30450746 41.77026367 282.35888672 C41.78381348 289.74047852 41.78381348 289.74047852 41.78633118 293.20266724 C41.79091988 295.60641142 41.80143357 298.01014896 41.81672668 300.41384888 C41.83879849 304.06752409 41.84171423 307.72077948 41.84057617 311.37451172 C41.8513705 312.43462904 41.86216482 313.49474636 41.87328625 314.58698845 C41.83263177 324.38706857 39.9748655 332.61426154 33.578125 340.20703125 C24.07006567 349.55423995 12.74891755 350.60185553 0 350.5 C-0.96808594 350.50773437 -1.93617188 350.51546875 -2.93359375 350.5234375 C-13.22823308 350.49580088 -23.69156438 349.45206048 -31.6328125 342.33984375 C-41.40497612 332.11693458 -42.18686251 321.74622585 -42.5 308.25 C-43.84964844 308.49169922 -43.84964844 308.49169922 -45.2265625 308.73828125 C-50.75356731 309.52328822 -56.3032367 309.43421476 -61.875 309.4375 C-62.96039063 309.44974609 -64.04578125 309.46199219 -65.1640625 309.47460938 C-76.08505724 309.49439379 -84.67929385 308.04554402 -93.5 301.25 C-102.2721416 292.16456763 -103.65796567 281.61194119 -103.63371277 269.54142761 C-103.63597833 268.70114165 -103.63824388 267.86085569 -103.64057809 266.99510652 C-103.64687337 264.19879048 -103.64609162 261.40252348 -103.64526367 258.60620117 C-103.64825794 256.59333738 -103.65166109 254.58047416 -103.65544128 252.56761169 C-103.66425792 247.11297227 -103.66661841 241.65834855 -103.66725707 236.20370269 C-103.66796887 232.79240427 -103.67010564 229.38110982 -103.67275429 225.96981239 C-103.68199978 214.05921806 -103.68609015 202.14863491 -103.68530273 190.23803711 C-103.68470207 179.15111804 -103.69525381 168.06424764 -103.7110464 156.97734088 C-103.72413875 147.44502477 -103.72948592 137.91272455 -103.72884732 128.38039953 C-103.72859285 122.69320514 -103.73141629 117.00605403 -103.74202538 111.31886864 C-103.75173494 105.96806357 -103.75176595 100.61734292 -103.74450874 95.26653481 C-103.74346647 93.30866497 -103.74580443 91.3507898 -103.7518692 89.39292908 C-103.8319624 61.7339262 -103.8319624 61.7339262 -95.5 51.25 C-87.89092714 43.93417741 -79.15345912 41.12933553 -68.69140625 41.1171875 C-67.61439453 41.11589844 -66.53738281 41.11460938 -65.42773438 41.11328125 C-63.76194336 41.11908203 -63.76194336 41.11908203 -62.0625 41.125 C-60.95583984 41.12113281 -59.84917969 41.11726563 -58.70898438 41.11328125 C-53.20039732 41.11986653 -47.92427364 41.26660651 -42.5 42.25 C-42.46132812 40.58324219 -42.46132812 40.58324219 -42.421875 38.8828125 C-42.00786982 26.4933241 -40.51896321 17.45618476 -31.6328125 8.16015625 C-22.89520256 0.33471438 -11.20466089 -0.08951793 0 0 Z " fill="#63B4F5" transform="translate(143.5,80.75)"/>
<path d="M0 0 C1.08539063 -0.01224609 2.17078125 -0.02449219 3.2890625 -0.03710938 C14.21005724 -0.05689379 22.80429385 1.39195598 31.625 8.1875 C40.3971416 17.27293237 41.78296567 27.82555881 41.75871277 39.89607239 C41.76097833 40.73635835 41.76324388 41.57664431 41.76557809 42.44239348 C41.77187337 45.23870952 41.77109162 48.03497652 41.77026367 50.83129883 C41.77325794 52.84416262 41.77666109 54.85702584 41.78044128 56.86988831 C41.78925792 62.32452773 41.79161841 67.77915145 41.79225707 73.23379731 C41.79296887 76.64509573 41.79510564 80.05639018 41.79775429 83.46768761 C41.80699978 95.37828194 41.81109015 107.28886509 41.81030273 119.19946289 C41.80970207 130.28638196 41.82025381 141.37325236 41.8360464 152.46015912 C41.84913875 161.99247523 41.85448592 171.52477545 41.85384732 181.05710047 C41.85359285 186.74429486 41.85641629 192.43144597 41.86702538 198.11863136 C41.87673494 203.46943643 41.87676595 208.82015708 41.86950874 214.17096519 C41.86846647 216.12883503 41.87080443 218.0867102 41.8768692 220.04457092 C41.9569624 247.7035738 41.9569624 247.7035738 33.625 258.1875 C26.01592714 265.50332259 17.27845912 268.30816447 6.81640625 268.3203125 C5.73939453 268.32160156 4.66238281 268.32289063 3.55273438 268.32421875 C2.44220703 268.32035156 1.33167969 268.31648438 0.1875 268.3125 C-0.91916016 268.31636719 -2.02582031 268.32023437 -3.16601562 268.32421875 C-18.25632107 268.30617893 -18.25632107 268.30617893 -20.375 266.1875 C-20.4724502 264.77582425 -20.50055435 263.35929494 -20.50084114 261.94425964 C-20.50344889 261.02326886 -20.50605664 260.10227808 -20.50874341 259.15337849 C-20.50651268 258.1297631 -20.50428196 257.10614771 -20.50198364 256.05151367 C-20.50354363 254.97330699 -20.50510362 253.89510031 -20.50671089 252.7842207 C-20.51072598 249.14128982 -20.50752928 245.4984 -20.50439453 241.85546875 C-20.50574835 239.25599137 -20.50752817 236.65651418 -20.50970459 234.05703735 C-20.51416293 227.71143226 -20.51318554 221.36583896 -20.51029195 215.02023339 C-20.50803817 209.8653251 -20.50772528 204.71042012 -20.50881577 199.55551147 C-20.50904561 198.45710474 -20.50904561 198.45710474 -20.50928011 197.33650798 C-20.50959982 195.84914724 -20.50992403 194.3617865 -20.5102527 192.87442577 C-20.51310768 178.91096135 -20.50982019 164.94750349 -20.50445233 150.98404014 C-20.49998428 138.98968233 -20.50076021 126.9953342 -20.50537109 115.00097656 C-20.51071654 101.08918886 -20.51283299 87.17740691 -20.50975883 73.26561832 C-20.50944026 71.78357506 -20.50912589 70.30153179 -20.50881577 68.81948853 C-20.50866149 68.09019911 -20.50850721 67.3609097 -20.50834826 66.60952061 C-20.50748302 61.45780849 -20.50894614 56.30609999 -20.51129532 51.15438843 C-20.5143846 44.22701725 -20.51220103 37.29966473 -20.50640106 30.37229538 C-20.50507268 27.82164923 -20.50546889 25.27100154 -20.50766373 22.72035599 C-20.51037217 19.25471151 -20.50699786 15.78912693 -20.50198364 12.32348633 C-20.50421436 11.29987094 -20.50644509 10.27625555 -20.50874341 9.22162151 C-20.50613566 8.30063073 -20.50352791 7.37963995 -20.50084114 6.43074036 C-20.50067879 5.62969281 -20.50051644 4.82864527 -20.50034916 4.00332355 C-20.375 2.1875 -20.375 2.1875 -19.375 1.1875 C-12.95460827 -0.08039248 -6.52438113 0.00384692 0 0 Z " fill="#1D87E5" transform="translate(430.375,121.8125)"/>
<path d="M0 0 C1.07701172 -0.00128906 2.15402344 -0.00257812 3.26367188 -0.00390625 C4.92946289 0.00189453 4.92946289 0.00189453 6.62890625 0.0078125 C7.73556641 0.00394531 8.84222656 0.00007813 9.98242188 -0.00390625 C25.07272732 0.01413357 25.07272732 0.01413357 27.19140625 2.1328125 C27.28885645 3.54448825 27.3169606 4.96101756 27.31724739 6.37605286 C27.31985514 7.29704364 27.32246289 8.21803442 27.32514966 9.16693401 C27.32291893 10.1905494 27.32068821 11.21416479 27.31838989 12.26879883 C27.31994988 13.34700551 27.32150987 14.42521219 27.32311714 15.5360918 C27.32713223 19.17902268 27.32393553 22.8219125 27.32080078 26.46484375 C27.3221546 29.06432113 27.32393442 31.66379832 27.32611084 34.26327515 C27.33056918 40.60888024 27.32959179 46.95447354 27.3266982 53.30007911 C27.32444442 58.4549874 27.32413153 63.60989238 27.32522202 68.76480103 C27.32537525 69.49707218 27.32552848 70.22934333 27.32568636 70.98380452 C27.32600607 72.47116526 27.32633028 73.958526 27.32665895 75.44588673 C27.32951393 89.40935115 27.32622644 103.37280901 27.32085858 117.33627236 C27.31639053 129.33063017 27.31716646 141.3249783 27.32177734 153.31933594 C27.32712279 167.23112364 27.32923924 181.14290559 27.32616508 195.05469418 C27.32584651 196.53673744 27.32553214 198.01878071 27.32522202 199.50082397 C27.3249906 200.59475809 27.3249906 200.59475809 27.32475451 201.71079189 C27.32388927 206.86250401 27.32535239 212.01421251 27.32770157 217.16592407 C27.33079085 224.09329525 27.32860728 231.02064777 27.32280731 237.94801712 C27.32147893 240.49866327 27.32187514 243.04931096 27.32406998 245.59995651 C27.32677842 249.06560099 27.32340411 252.53118557 27.31838989 255.99682617 C27.32062061 257.02044156 27.32285134 258.04405695 27.32514966 259.09869099 C27.32123803 260.48017716 27.32123803 260.48017716 27.31724739 261.88957214 C27.31708504 262.69061969 27.31692269 263.49166723 27.31675541 264.31698895 C27.19140625 266.1328125 27.19140625 266.1328125 26.19140625 267.1328125 C19.77101452 268.40070498 13.34078738 268.31646558 6.81640625 268.3203125 C5.73101562 268.33255859 4.645625 268.34480469 3.52734375 268.35742188 C-7.39365099 268.37720629 -15.9878876 266.92835652 -24.80859375 260.1328125 C-33.58073535 251.04738013 -34.96655942 240.49475369 -34.94230652 228.42424011 C-34.94457208 227.58395415 -34.94683763 226.74366819 -34.94917184 225.87791902 C-34.95546712 223.08160298 -34.95468537 220.28533598 -34.95385742 217.48901367 C-34.95685169 215.47614988 -34.96025484 213.46328666 -34.96403503 211.45042419 C-34.97285167 205.99578477 -34.97521216 200.54116105 -34.97585082 195.08651519 C-34.97656262 191.67521677 -34.97869939 188.26392232 -34.98134804 184.85262489 C-34.99059353 172.94203056 -34.9946839 161.03144741 -34.99389648 149.12084961 C-34.99329582 138.03393054 -35.00384756 126.94706014 -35.01964015 115.86015338 C-35.0327325 106.32783727 -35.03807967 96.79553705 -35.03744107 87.26321203 C-35.0371866 81.57601764 -35.04001004 75.88886653 -35.05061913 70.20168114 C-35.06032869 64.85087607 -35.0603597 59.50015542 -35.05310249 54.14934731 C-35.05206022 52.19147747 -35.05439818 50.2336023 -35.06046295 48.27574158 C-35.14055615 20.6167387 -35.14055615 20.6167387 -26.80859375 10.1328125 C-19.19952089 2.81698991 -10.46205287 0.01214803 0 0 Z " fill="#1D87E5" transform="translate(74.80859375,121.8671875)"/>
<path d="M0 0 C47.52 0 95.04 0 144 0 C144 20.46 144 40.92 144 62 C96.48 62 48.96 62 0 62 C0 41.54 0 21.08 0 0 Z " fill="#1E88E5" transform="translate(184,225)"/>
</svg>
